<svg width="47" height="33" viewBox="0 0 47 33" fill="none" xmlns="http://www.w3.org/2000/svg">
<g clip-path="url(#clip0_805_6646)">
<path d="M33.5554 32V18H37.2354V23.48L42.0554 18H46.5154L41.3154 23.82L46.8354 32H42.3954L38.7354 26.48L37.2354 28.16V32H33.5554Z" fill="#C61F1F"/>
<path d="M25.5901 32.12C21.3701 32.12 18.8301 29.32 18.8301 25C18.8301 20.68 21.4501 17.88 25.7901 17.88C29.2301 17.88 31.6301 20.1 31.8901 23.22H28.2101C27.9501 21.88 27.0301 20.92 25.5901 20.92C23.6701 20.92 22.5901 22.6 22.5901 25C22.5901 27.4 23.6701 29.08 25.5901 29.08C27.0301 29.08 27.9501 28.12 28.2101 26.78H31.8901C31.6301 29.9 29.1501 32.12 25.5901 32.12Z" fill="#C61F1F"/>
<path d="M13 32V18H16.68V32H13Z" fill="#C61F1F"/>
<path d="M0 21.12V18H11.24V21.12H7.46V32H3.78V21.12H0Z" fill="#C61F1F"/>
<path d="M29.1477 14H19.3477V0H23.0277V10.88H29.1477V14Z" fill="#C61F1F"/>
<path d="M13 14V0H16.68V14H13Z" fill="#C61F1F"/>
<path d="M0.0999756 14V0H5.63998C8.99998 0 11 1.32 11 3.7C11 5.54 9.87998 6.56 8.11998 6.82C10.18 7.04 11.46 8.04 11.46 10.02C11.46 12.46 9.45998 14 5.93998 14H0.0999756ZM5.69998 2.78H3.77998V5.58H5.69998C6.71998 5.58 7.31998 5.02 7.31998 4.18C7.31998 3.34 6.71998 2.78 5.69998 2.78ZM5.97998 8.32H3.77998V11.2H5.97998C7.03998 11.2 7.67998 10.66 7.67998 9.76C7.67998 8.86 7.03998 8.32 5.97998 8.32Z" fill="#C61F1F"/>
<path d="M46 5.44444H46.25V5.19444V1.22222C46.25 0.676468 45.7933 0.25 45.25 0.25H31.75C31.2067 0.25 30.75 0.676464 30.75 1.22222V12.7778C30.75 13.3235 31.2067 13.75 31.75 13.75H45.25C45.7933 13.75 46.25 13.3235 46.25 12.7778V8.80556V8.55556H46C45.0936 8.55556 44.375 7.8503 44.375 7C44.375 6.14971 45.0936 5.44444 46 5.44444ZM36.625 10.0833C36.077 10.0833 35.5989 10.3952 35.3785 10.8531L32.75 11.711V2.28901L35.3785 3.14688C35.5989 3.60479 36.077 3.91667 36.625 3.91667C37.163 3.91667 37.6337 3.61602 37.8592 3.1717L44.25 2.23381V3.93415C43.1357 4.52836 42.375 5.67582 42.375 7C42.375 8.32411 43.1357 9.47164 44.25 10.0658V11.7662L37.8592 10.8283C37.6337 10.384 37.163 10.0833 36.625 10.0833Z" fill="#C61F1F" stroke="#C61F1F" stroke-width="0.5"/>
</g>
<defs>
<clipPath id="clip0_805_6646">
<rect width="46.8355" height="32.12" fill="white"/>
</clipPath>
</defs>
</svg>
